PathFileType	4	(X/Y/Z)	OpenSim_Sub10_CSBaseline_Gyro.trc
DataRate	CameraRate	NumFrames	NumMarkers	Units	OrigDataRate	OrigDataStartFrame	OrigNumFrames
100	100	20	8	m	100	3417	9111
Frame#	Time	torso_imu_offset_imu	pelvis_imu_offset_imu	tibia_r_imu_offset_imu	femur_r_imu_offset_imu	tibia_l_imu_offset_imu	femur_l_imu_offset_imu	toes_r_imu_offset_imu	toes_l_imu_offset_imu
				X1	Y1	Z1	X2	Y2	Z2	X3	Y3	Z3	X4	Y4	Z4	X5	Y5	Z5	X6	Y6	Z6	X7	Y7	Z7	X8		Y8	Z8	

3417	34.16000000	-0.46326955	0.44451997	-0.12136682	-0.43576600	-0.44103589	-0.03069602	-0.42097455	0.22468750	-1.63231776	-0.82620311	0.09800426	-0.33241043	-0.53042630	-0.89481058	0.91922041	1.19089665	-0.71007660	-0.44907257	-0.02929092	-2.00085338	-0.21101798	-0.18540998	-3.81192057	-0.96476515
3418	34.17000000	-0.49331851	0.41150272	-0.15499475	-0.37212806	-0.45169025	-0.03970912	-0.36034792	0.25488311	-1.73843199	-0.88590496	0.19330125	-0.26338895	-1.38861675	-0.87699203	1.04647217	0.92055555	-0.88431630	-0.23215302	0.17000135	-2.23363171	-0.28250268	-0.58442412	-3.34530306	-0.83910746
3419	34.18000000	-0.53621870	0.38993051	-0.19018969	-0.31570024	-0.41227651	-0.05601204	-0.33575699	0.27645392	-1.79085977	-0.89038410	0.29037014	-0.17679874	-1.78306278	-0.74122235	1.39776460	0.56746940	-0.98326652	-0.00293404	0.09777234	-2.51434895	-0.34110972	-0.24328045	-3.34528852	-0.22137115
3420	34.19000000	-0.56306391	0.35282174	-0.21450973	-0.20937575	-0.30917886	-0.07245230	-0.30717146	0.26446118	-1.84229288	-0.84254540	0.34423067	-0.05994649	-2.11749122	-0.52921829	1.66056217	0.16985548	-0.91677138	0.26001924	0.20790291	-2.85960574	-0.40774529	0.48757721	-3.34391165	0.77245062
3421	34.20000000	-0.56950600	0.31277557	-0.19100671	-0.05296768	-0.23141785	-0.07351724	-0.23911891	0.22954381	-1.95409217	-0.74073003	0.35930846	0.09404351	-2.16313473	-0.49876166	1.67038220	-0.15488735	-0.75751479	0.55900164	0.22741866	-3.25354425	-0.52610264	0.98020323	-2.96522138	1.30956136
3422	34.21000000	-0.55017997	0.29542411	-0.14378798	0.10353241	-0.23959716	-0.09371536	-0.20920422	0.20860284	-2.07747968	-0.62164165	0.35943740	0.27584189	-2.12003491	-0.51932192	1.62292091	-0.30197066	-0.51701175	0.64162710	0.30246331	-3.62761137	-0.61028431	0.75799626	-2.49332414	0.85105795
3423	34.22000000	-0.46875476	0.30387122	-0.07997592	0.19607936	-0.32995167	-0.11213814	-0.24647387	0.17169498	-2.17125896	-0.52927456	0.38997062	0.48594768	-1.81945624	-0.49848911	1.50124574	-0.27167333	-0.28869221	0.34799814	0.66134246	-3.99894023	-0.76803410	-0.64389386	-2.42279419	0.17200648
3424	34.23000000	-0.34148788	0.35504957	-0.04566503	0.14824246	-0.40698828	-0.12817611	-0.34409675	0.12573491	-2.24977126	-0.46184416	0.44531424	0.72074124	-1.28046586	-0.44501318	1.39678296	-0.37141094	-0.21202705	0.02435434	0.96656049	-4.56212348	-0.89688476	-0.81411357	-1.89403065	0.20193697
3425	34.24000000	-0.33565030	0.42404585	-0.05669008	0.01609563	-0.38512467	-0.11938884	-0.42835553	0.05908801	-2.35689627	-0.42854673	0.50569264	0.97656905	-0.85116385	-0.53991960	1.38336621	-0.76034021	-0.24628223	-0.27519557	0.94389486	-4.98008724	-0.93035979	-0.56707669	-0.35669306	0.45861003
3426	34.25000000	-0.38308624	0.44749674	-0.06013496	-0.14307805	-0.30832134	-0.09189776	-0.54613924	-0.00538590	-2.46606585	-0.43545975	0.58622894	1.21185320	-0.39065578	-0.66686868	1.31739924	-1.22708691	-0.22888707	-0.33018976	1.47737985	-5.02468106	-1.02670611	0.05489162	-0.78643583	0.11344101
3427	34.26000000	-0.47632514	0.43771270	-0.05642738	-0.30952307	-0.19672243	-0.06106864	-0.70628061	-0.00882636	-2.53716965	-0.47616974	0.67679319	1.40582959	0.42307812	-0.73710588	1.08003510	-1.62590421	-0.22383152	-0.16852082	1.07594777	-5.90200575	-1.12216840	-0.45868474	0.05270443	-0.03081632
3428	34.27000000	-0.50091507	0.46857278	-0.03040898	-0.46284954	-0.10119113	-0.05113960	-0.74968336	-0.04874433	-2.57089671	-0.53571017	0.74102305	1.56572401	0.88363793	-0.69573165	0.86409961	-1.87062794	-0.27445712	0.14269455	0.83001720	-5.99614160	-1.24351737	-0.15264900	-0.16655567	-0.04052038
3429	34.28000000	-0.55115810	0.47107618	-0.03559193	-0.56917053	-0.00944415	-0.07179687	-0.68852602	-0.12979477	-2.58855571	-0.61290832	0.79298999	1.70773697	1.04159111	-0.63626114	0.80138370	-1.71680344	-0.48901632	0.51737659	1.54825548	-5.80318141	-1.22440731	-0.21884616	-0.08140292	-0.06376407
3430	34.29000000	-0.59017989	0.46131103	-0.06438829	-0.64698092	0.04252132	-0.10987151	-0.64317031	-0.16933565	-2.61263953	-0.66639618	0.87558774	1.82570759	1.21990768	-0.50462173	0.73731885	-1.24743053	-0.84344549	0.96204994	0.42843483	-5.16056542	-1.04233132	-0.06272491	-0.03742186	-0.11467154
3431	34.30000000	-0.56163738	0.44714371	-0.08794134	-0.67670393	0.06333965	-0.16060341	-0.44925407	-0.18559576	-2.63601846	-0.71424400	0.89053278	1.92273071	0.87123627	-0.46274837	0.62444795	-0.46158147	-1.03148851	1.43026705	0.39586457	-5.99062381	-1.03821576	0.00779037	-0.02711820	-0.13199402
3432	34.31000000	-0.55014087	0.40771090	-0.09920784	-0.67504500	0.05298425	-0.20422525	-0.21653417	-0.19963909	-2.75987610	-0.71629809	0.80886723	2.04329000	0.24746094	-0.53187796	0.53376653	0.52226501	-1.01902526	1.67881671	-0.41538172	-5.56133749	-1.08028379	0.00114218	-0.01259706	-0.13453173
3433	34.32000000	-0.59261712	0.34539710	-0.11654410	-0.68365696	0.03289355	-0.23738434	-0.42150028	-0.27373228	-2.83040850	-0.65281190	0.63227403	2.15385293	-0.36374104	-0.68439651	0.51113967	1.29330387	-0.79218972	1.59515312	-0.61146021	-5.63241242	-1.18903399	-0.04040069	-0.01498955	-0.07060949
3434	34.33000000	-0.61859618	0.30065396	-0.13735166	-0.67590813	0.01650003	-0.24627477	-0.68906489	-0.33436629	-2.67740789	-0.58405028	0.43031520	2.26514463	-0.81139053	-0.73318541	0.45890766	1.58015295	-0.54879686	1.41140436	-0.80749266	-4.37319203	-1.34443859	-0.13595659	0.00559693	-0.00250219
3435	34.34000000	-0.62441438	0.25866309	-0.15968530	-0.64854156	0.01567499	-0.24492715	-0.91256483	-0.35299410	-2.41094893	-0.49428118	0.22933417	2.37393554	-1.08521118	-0.65268033	0.40543911	1.39033955	-0.36369996	1.20388459	0.63848117	-3.91792874	-1.74000693	-0.22598558	-0.01409643	0.07669910
3436	34.35000000	-0.65159555	0.20369020	-0.19241653	-0.60230066	0.04823668	-0.22996921	-1.15350242	-0.40688497	-2.15858342	-0.38934989	0.05505113	2.47947156	-1.15884218	-0.59980240	0.39957419	0.90482792	-0.21674660	1.16527738	1.45678602	-3.41426806	-1.80685781	-0.28880949	-0.00254637	0.10343562
